<svg width="61" height="60" viewBox="0 0 61 60" fill="none" xmlns="http://www.w3.org/2000/svg">
<g clip-path="url(#clip0_741_16829)">
<path d="M58.9322 51.2708C59.2515 52.4645 58.5427 53.691 57.349 54.0118L47.407 56.6752C46.2133 56.996 44.9868 56.2873 44.6659 55.0921L43.4678 50.6202L57.734 46.7974L58.9322 51.2708Z" fill="#FF7124" fill-opacity="0.25"/>
<path d="M47.5723 8.87939L57.7337 46.7973L43.4675 50.6201L33.3076 12.7022L47.5723 8.87939ZM50.1418 39.5262C50.5402 39.4202 50.7759 39.0114 50.6685 38.613L45.5475 19.4988C45.4416 19.1019 45.0312 18.8647 44.6343 18.9721L40.8996 19.9733C40.5012 20.0793 40.2654 20.4881 40.3713 20.8865L45.4923 40.0007C45.5997 40.3976 46.0086 40.6348 46.407 40.5274L50.1418 39.5262Z" fill="#FF7124" fill-opacity="0.25"/>
<path d="M50.6682 38.613C50.7756 39.0114 50.5399 39.4202 50.1415 39.5262L46.4067 40.5274C46.0083 40.6348 45.5995 40.3976 45.492 40.0007L40.371 20.8865C40.2651 20.4882 40.5009 20.0793 40.8993 19.9734L44.6341 18.9722C45.031 18.8647 45.4413 19.102 45.5472 19.4989L50.6682 38.613Z" fill="#F2D59F" fill-opacity="0.25"/>
<path d="M46.3741 4.40738L47.5723 8.87928L33.3076 12.7021L32.1094 8.22871C31.7886 7.03501 32.4973 5.80848 33.691 5.48768L43.6331 2.82423C44.8268 2.50343 46.0548 3.21219 46.3741 4.40738Z" fill="#FF7124" fill-opacity="0.25"/>
<path d="M31.5293 50.3857V55.0158C31.5293 56.2528 30.5281 57.254 29.2911 57.254H18.9999C17.7629 57.254 16.7617 56.2528 16.7617 55.0158V50.3857H31.5293Z" fill="#8ECAC1" fill-opacity="0.25"/>
<path d="M31.5293 11.1294V50.3857H16.7617V11.1294H31.5293ZM26.8246 40.6511V20.864C26.8246 20.4522 26.4904 20.118 26.0785 20.118H22.2125C21.8006 20.118 21.4664 20.4522 21.4664 20.864V40.6511C21.4664 41.0644 21.8006 41.3972 22.2125 41.3972H26.0785C26.4904 41.3972 26.8246 41.0644 26.8246 40.6511Z" fill="#8ECAC1" fill-opacity="0.25"/>
<path d="M31.5293 6.49942V11.1295H16.7617V6.49942C16.7617 5.26394 17.7629 4.26123 18.9999 4.26123H29.2911C30.5281 4.26123 31.5293 5.26394 31.5293 6.49942Z" fill="#8ECAC1" fill-opacity="0.25"/>
<path d="M26.824 20.8642V40.6513C26.824 41.0646 26.4898 41.3974 26.078 41.3974H22.2119C21.8001 41.3974 21.4658 41.0646 21.4658 40.6513V20.8642C21.4658 20.4524 21.8001 20.1182 22.2119 20.1182H26.078C26.4898 20.1182 26.824 20.4524 26.824 20.8642Z" fill="#F2D59F" fill-opacity="0.25"/>
<path d="M16.7612 50.3857V55.0158C16.7612 56.2528 15.7585 57.254 14.5231 57.254H4.23038C2.9949 57.254 1.99219 56.2528 1.99219 55.0158V50.3857H16.7612Z" fill="#8ECAC1" fill-opacity="0.25"/>
<path d="M16.7612 11.1294V50.3857H1.99219V11.1294H16.7612ZM12.0566 40.6511V20.864C12.0566 20.4522 11.7223 20.118 11.3105 20.118H7.44292C7.03109 20.118 6.69686 20.4522 6.69686 20.864V40.6511C6.69686 41.0644 7.03109 41.3972 7.44292 41.3972H11.3105C11.7223 41.3972 12.0566 41.0644 12.0566 40.6511Z" fill="#8ECAC1" fill-opacity="0.25"/>
<path d="M16.7612 6.49942V11.1295H1.99219V6.49942C1.99219 5.26394 2.9949 4.26123 4.23038 4.26123H14.5231C15.7585 4.26123 16.7612 5.26394 16.7612 6.49942Z" fill="#8ECAC1" fill-opacity="0.25"/>
<path d="M12.057 20.8642V40.6513C12.057 41.0646 11.7227 41.3974 11.3109 41.3974H7.44333C7.0315 41.3974 6.69727 41.0646 6.69727 40.6513V20.8642C6.69727 20.4524 7.0315 20.1182 7.44333 20.1182H11.3109C11.7227 20.1182 12.057 20.4524 12.057 20.8642Z" fill="#F2D59F" fill-opacity="0.25"/>
<path d="M11.3109 42.8893H7.44327C6.20913 42.8893 5.20508 41.8852 5.20508 40.6511V20.8642C5.20508 19.63 6.20913 18.626 7.44327 18.626H11.3109C12.545 18.626 13.549 19.6299 13.549 20.8642V40.6511C13.549 41.8854 12.5451 42.8893 11.3109 42.8893ZM8.18933 39.905H10.5648V21.6102H8.18933V39.905Z" fill="#184372"/>
<path d="M16.7612 12.6219H1.99213C1.16802 12.6219 0.5 11.9538 0.5 11.1298C0.5 10.3059 1.16802 9.6377 1.99213 9.6377H16.7612C17.5851 9.6377 18.2533 10.3059 18.2533 11.1298C18.2533 11.9539 17.5853 12.6219 16.7612 12.6219Z" fill="#184372"/>
<path d="M16.7612 51.8778H1.99213C1.16802 51.8778 0.5 51.2098 0.5 50.3857C0.5 49.5617 1.16802 48.8936 1.99213 48.8936H16.7612C17.5851 48.8936 18.2533 49.5617 18.2533 50.3857C18.2533 51.2098 17.5853 51.8778 16.7612 51.8778Z" fill="#184372"/>
<path d="M14.523 58.7461H4.23031C2.17342 58.7461 0.5 57.0727 0.5 55.0158V6.49936C0.5 4.44246 2.17342 2.76904 4.23031 2.76904H14.523C16.5799 2.76904 18.2533 4.44246 18.2533 6.49936C18.2533 7.32331 17.5851 7.99148 16.7612 7.99148C15.9372 7.99148 15.2691 7.32331 15.2691 6.49936C15.2691 6.08798 14.9344 5.75329 14.523 5.75329H4.23031C3.81893 5.75329 3.48425 6.08798 3.48425 6.49936V55.0158C3.48425 55.4272 3.81893 55.7619 4.23031 55.7619H14.523C14.9344 55.7619 15.2691 55.4272 15.2691 55.0158C15.2691 54.1919 15.9372 53.5237 16.7612 53.5237C17.5851 53.5237 18.2533 54.1919 18.2533 55.0158C18.2533 57.0729 16.58 58.7461 14.523 58.7461Z" fill="#184372"/>
<path d="M26.0779 42.8893H22.2118C20.9777 42.8893 19.9736 41.8852 19.9736 40.6511V20.8642C19.9736 19.63 20.9777 18.626 22.2118 18.626H26.0779C27.3121 18.626 28.3161 19.6299 28.3161 20.8642V40.6511C28.3161 41.8854 27.3121 42.8893 26.0779 42.8893ZM22.9579 39.905H25.3319V21.6102H22.9579V39.905Z" fill="#184372"/>
<path d="M31.5292 12.6219H16.7617C15.9377 12.6219 15.2695 11.9538 15.2695 11.1298C15.2695 10.3059 15.9377 9.6377 16.7617 9.6377H31.5292C32.3532 9.6377 33.0213 10.3059 33.0213 11.1298C33.0213 11.9539 32.3533 12.6219 31.5292 12.6219Z" fill="#184372"/>
<path d="M31.5292 51.8778H16.7617C15.9377 51.8778 15.2695 51.2098 15.2695 50.3857C15.2695 49.5617 15.9377 48.8936 16.7617 48.8936H31.5292C32.3532 48.8936 33.0213 49.5617 33.0213 50.3857C33.0213 51.2098 32.3533 51.8778 31.5292 51.8778Z" fill="#184372"/>
<path d="M29.291 58.7461H18.9998C16.9429 58.7461 15.2695 57.0727 15.2695 55.0158V6.49936C15.2695 4.44246 16.9429 2.76904 18.9998 2.76904H29.291C31.3479 2.76904 33.0213 4.44246 33.0213 6.49936V55.0158C33.0213 57.0729 31.3479 58.7461 29.291 58.7461ZM18.9998 5.75329C18.5885 5.75329 18.2538 6.08798 18.2538 6.49936V55.0158C18.2538 55.4272 18.5885 55.7619 18.9998 55.7619H29.291C29.7024 55.7619 30.0371 55.4272 30.0371 55.0158V6.49936C30.0371 6.08798 29.7024 5.75329 29.291 5.75329H18.9998Z" fill="#184372"/>
<path d="M46.2136 42.0459C45.2284 42.0459 44.3219 41.3876 44.0522 40.3904L38.9303 21.2727C38.6123 20.0769 39.3242 18.8484 40.5164 18.5315L44.2482 17.5309C44.8224 17.3757 45.4264 17.4543 45.9451 17.7533C46.4642 18.0527 46.8353 18.5358 46.9895 19.114L52.1101 38.2269C52.2654 38.8032 52.1865 39.4075 51.887 39.926C51.5881 40.4433 51.1059 40.8129 50.5286 40.9674L46.7938 41.9687C46.6001 42.021 46.4052 42.0459 46.2136 42.0459ZM42.006 21.2216L46.7405 38.8933L49.0342 38.2783L44.2998 20.6067L42.006 21.2216Z" fill="#184372"/>
<path d="M33.306 14.1948C32.6471 14.1948 32.0443 13.7552 31.8657 13.0886C31.6523 12.2925 32.1247 11.4744 32.9206 11.261L47.1855 7.43818C47.982 7.22421 48.7997 7.69706 49.0131 8.49311C49.2264 9.28916 48.754 10.1073 47.9581 10.3207L33.6933 14.1435C33.5639 14.1783 33.4339 14.1948 33.306 14.1948Z" fill="#184372"/>
<path d="M43.4662 52.1126C42.8073 52.1126 42.2045 51.673 42.0259 51.0062C41.8125 50.2103 42.2849 49.3921 43.0809 49.1788L57.3471 45.3559C58.1426 45.1426 58.9612 45.6148 59.1746 46.411C59.3879 47.2069 58.9155 48.0251 58.1195 48.2384L43.8533 52.0613C43.724 52.096 43.5939 52.1126 43.4662 52.1126Z" fill="#184372"/>
<path d="M46.8207 58.2457C46.1747 58.2457 45.537 58.0762 44.9624 57.7442C44.1001 57.2461 43.4829 56.4417 43.2245 55.479L30.668 8.61491C30.1348 6.63038 31.317 4.5808 33.3038 4.04707L43.2469 1.38318C44.2081 1.12459 45.2139 1.25664 46.0773 1.75516C46.9408 2.25383 47.5582 3.05883 47.8156 4.0223L59.1749 46.411V46.4113L60.373 50.8847C60.9042 52.8703 59.721 54.9193 57.7357 55.4526L47.7926 58.1165C47.4712 58.203 47.1449 58.2457 46.8207 58.2457ZM44.2138 4.23955C44.1536 4.23955 44.0887 4.24716 44.0201 4.26551L34.077 6.9294C33.8178 6.99909 33.6819 7.17725 33.6243 7.27722C33.5667 7.37689 33.4806 7.58296 33.5502 7.84184L46.1067 54.7061C46.1585 54.8988 46.2823 55.0604 46.4549 55.1603C46.5546 55.2179 46.7602 55.3038 47.0193 55.2344L56.9623 52.5705C57.3593 52.4638 57.5965 52.0537 57.4903 51.6565L44.9327 4.79373C44.8629 4.5329 44.685 4.39742 44.585 4.33967C44.5118 4.2973 44.3809 4.23955 44.2138 4.23955Z" fill="#184372"/>
</g>
<defs>
<clipPath id="clip0_741_16829">
<rect width="60" height="60" fill="white" transform="translate(0.5)"/>
</clipPath>
</defs>
</svg>
