<svg width="60" height="60" viewBox="0 0 60 60" fill="none" xmlns="http://www.w3.org/2000/svg">
<path d="M58.7207 15.3647V47.8274H30V46.4611C30 44.4679 31.6145 42.8534 33.6077 42.8534H53.7659V15.3647H58.7207Z" fill="#F2D59F" fill-opacity="0.25"/>
<path d="M53.7659 15.3647V42.8535H33.6077C31.6145 42.8535 30 44.468 30 46.4611V15.7805C30 15.6398 30.0077 15.5004 30.0256 15.3647C30.2303 13.5673 31.7552 12.1729 33.6077 12.1729H53.7659V15.3647ZM41.3578 25.9511V12.279H35.4064V25.9511L38.3821 23.2633L41.3578 25.9511Z" fill="#8ECAC1" fill-opacity="0.25"/>
<path d="M41.3576 12.2788V25.9509L38.3819 23.263L35.4062 25.9509V12.2788H41.3576Z" fill="#FF7124" fill-opacity="0.25"/>
<path d="M30 46.4611V47.8274H1.2793V15.3647H6.23409V42.8534H26.3923C28.3855 42.8534 30 44.4679 30 46.4611Z" fill="#F2D59F" fill-opacity="0.25"/>
<path d="M30.0003 15.7805V46.4611C30.0003 44.468 28.3858 42.8535 26.3926 42.8535H6.23438V15.3647V12.1729H26.3926C28.245 12.1729 29.77 13.5673 29.9747 15.3647C29.9926 15.5004 30.0003 15.6398 30.0003 15.7805Z" fill="#8ECAC1" fill-opacity="0.25"/>
<path d="M58.7207 49.1068H1.27932C0.572751 49.1068 0 48.5339 0 47.8275V15.3648C0 14.6583 0.572751 14.0854 1.27932 14.0854H6.23412C6.94055 14.0854 7.51343 14.6583 7.51343 15.3648C7.51343 16.0712 6.94055 16.6441 6.23412 16.6441H2.55864V46.5481H57.4414V16.6441H53.7659C53.0594 16.6441 52.4866 16.0713 52.4866 15.3648C52.4866 14.6582 53.0594 14.0854 53.7659 14.0854H58.7207C59.4271 14.0854 60 14.6583 60 15.3648V47.8275C60 48.5339 59.4271 49.1068 58.7207 49.1068Z" fill="#184372"/>
<path d="M30.0258 16.6441H29.9746C29.2681 16.6441 28.6953 16.0713 28.6953 15.3648C28.6953 14.6582 29.2681 14.0854 29.9746 14.0854H30.0258C30.7324 14.0854 31.3051 14.6583 31.3051 15.3648C31.3051 16.0712 30.7324 16.6441 30.0258 16.6441Z" fill="#184372"/>
<path d="M30 47.7405C29.2935 47.7405 28.7207 47.1677 28.7207 46.4611C28.7207 43.7665 30.9131 41.5742 33.6077 41.5742H52.4866V13.4522H33.6077C32.4237 13.4522 31.4303 14.3366 31.2967 15.5093C31.2958 15.5173 31.2948 15.5251 31.2939 15.5329C31.2843 15.6054 31.2795 15.6888 31.2795 15.7805C31.2795 16.487 30.7067 17.0599 30.0001 17.0599C29.2936 17.0599 28.7208 16.4871 28.7208 15.7805C28.7208 15.581 28.7327 15.3887 28.756 15.2082C29.0421 12.7475 31.1257 10.8936 33.6078 10.8936H53.7659C54.4723 10.8936 55.0452 11.4664 55.0452 12.1729V42.8535C55.0452 43.5599 54.4723 44.1328 53.7659 44.1328H33.6077C32.3239 44.1328 31.2793 45.1772 31.2793 46.4611C31.2793 47.1676 30.7066 47.7405 30 47.7405Z" fill="#184372"/>
<path d="M30 49.1066C29.2935 49.1066 28.7207 48.5337 28.7207 47.8273V46.461C28.7207 45.7545 29.2935 45.1816 30 45.1816C30.7066 45.1816 31.2793 45.7545 31.2793 46.461V47.8273C31.2793 48.5337 30.7066 49.1066 30 49.1066Z" fill="#184372"/>
<path d="M30.0003 47.7405C29.2937 47.7405 28.721 47.1677 28.721 46.4611C28.721 45.1772 27.6764 44.1328 26.3926 44.1328H6.2344C5.52796 44.1328 4.95508 43.5599 4.95508 42.8535V12.1729C4.95508 11.4664 5.52796 10.8936 6.2344 10.8936H26.3926C28.8746 10.8936 30.9582 12.7474 31.2444 15.2082C31.2678 15.3886 31.2796 15.581 31.2796 15.7805V46.4611C31.2796 47.1676 30.7068 47.7405 30.0003 47.7405ZM7.51371 41.5742H26.3926C27.235 41.5742 28.0283 41.7884 28.721 42.1653V15.7805C28.721 15.6888 28.7161 15.6055 28.7065 15.5329C28.7055 15.5251 28.7045 15.5173 28.7037 15.5093C28.5701 14.3366 27.5766 13.4522 26.3927 13.4522H7.51371V41.5742Z" fill="#184372"/>
<path d="M24.5937 18.8575H11.6406C10.9342 18.8575 10.3613 18.2846 10.3613 17.5781C10.3613 16.8716 10.9342 16.2988 11.6406 16.2988H24.5937C25.3002 16.2988 25.8731 16.8717 25.8731 17.5781C25.8731 18.2847 25.3003 18.8575 24.5937 18.8575Z" fill="#184372"/>
<path d="M24.5937 25.46H11.6406C10.9342 25.46 10.3613 24.8871 10.3613 24.1807C10.3613 23.4742 10.9342 22.9014 11.6406 22.9014H24.5937C25.3002 22.9014 25.8731 23.4742 25.8731 24.1807C25.8731 24.8871 25.3003 25.46 24.5937 25.46Z" fill="#184372"/>
<path d="M24.5937 32.0625H11.6406C10.9342 32.0625 10.3613 31.4897 10.3613 30.7832C10.3613 30.0768 10.9342 29.5039 11.6406 29.5039H24.5937C25.3002 29.5039 25.8731 30.0768 25.8731 30.7832C25.8731 31.4898 25.3003 32.0625 24.5937 32.0625Z" fill="#184372"/>
<path d="M24.5937 38.6636H11.6406C10.9342 38.6636 10.3613 38.0907 10.3613 37.3843C10.3613 36.6779 10.9342 36.105 11.6406 36.105H24.5937C25.3002 36.105 25.8731 36.6779 25.8731 37.3843C25.8731 38.0907 25.3003 38.6636 24.5937 38.6636Z" fill="#184372"/>
<path d="M48.3591 18.8575H45.7071C45.0006 18.8575 44.4277 18.2846 44.4277 17.5781C44.4277 16.8716 45.0006 16.2988 45.7071 16.2988H48.359C49.0654 16.2988 49.6383 16.8717 49.6383 17.5781C49.6384 18.2847 49.0655 18.8575 48.3591 18.8575Z" fill="#184372"/>
<path d="M48.3591 25.46H45.7071C45.0006 25.46 44.4277 24.8871 44.4277 24.1807C44.4277 23.4742 45.0006 22.9014 45.7071 22.9014H48.359C49.0654 22.9014 49.6383 23.4742 49.6383 24.1807C49.6384 24.8871 49.0655 25.46 48.3591 25.46Z" fill="#184372"/>
<path d="M48.3594 32.0625H35.4063C34.6998 32.0625 34.127 31.4897 34.127 30.7832C34.127 30.0768 34.6998 29.5039 35.4063 29.5039H48.3594C49.0658 29.5039 49.6387 30.0768 49.6387 30.7832C49.6387 31.4898 49.0658 32.0625 48.3594 32.0625Z" fill="#184372"/>
<path d="M48.3594 38.6636H35.4063C34.6998 38.6636 34.127 38.0907 34.127 37.3843C34.127 36.6779 34.6998 36.105 35.4063 36.105H48.3594C49.0658 36.105 49.6387 36.6779 49.6387 37.3843C49.6387 38.0907 49.0658 38.6636 48.3594 38.6636Z" fill="#184372"/>
<path d="M41.3587 27.1662C41.0631 27.1662 40.7716 27.0585 40.5437 26.8528L38.3826 24.9008L36.2216 26.8528C35.865 27.1748 35.3524 27.2566 34.9133 27.0616C34.4744 26.8666 34.1914 26.4313 34.1914 25.9509V12.2788C34.1914 11.6076 34.7355 11.0635 35.4068 11.0635H41.3583C42.0295 11.0635 42.5736 11.6076 42.5736 12.2788V25.9509C42.5736 26.4313 42.2906 26.8665 41.8517 27.0616C41.6935 27.1318 41.5255 27.1662 41.3587 27.1662ZM38.3827 22.0477C38.6743 22.0477 38.9661 22.1521 39.1974 22.3611L40.1432 23.2155V13.4942H36.6224V23.2152L37.568 22.361C37.7993 22.1521 38.091 22.0477 38.3827 22.0477Z" fill="#184372"/>
</svg>
