<svg width="61" height="60" viewBox="0 0 61 60" fill="none" xmlns="http://www.w3.org/2000/svg">
<path d="M58.2882 53.6538V58.7541H2.71191V53.6538H5.18917H55.811H58.2882Z" fill="#FF7124" fill-opacity="0.25"/>
<path d="M58.2882 16.8772H55.811H5.18917H2.71191L30.5001 1.24609L58.2882 16.8772ZM21.74 11.8928H39.2602L30.5001 6.96447L21.74 11.8928Z" fill="#FF7124" fill-opacity="0.25"/>
<path d="M55.8113 48.5532V53.6535H5.18945V48.5532H9.096H17.2605H26.4181H34.5826H43.7402H51.9047H55.8113Z" fill="#F2D59F" fill-opacity="0.25"/>
<path d="M55.8113 16.8774V21.9778H51.9047H43.7402H34.5826H26.4181H17.2605H9.096H5.18945V16.8774H55.8113Z" fill="#F2D59F" fill-opacity="0.25"/>
<path d="M51.9047 44.4673V48.5533H43.7402V44.4673H44.853H50.7919H51.9047Z" fill="#F2D59F" fill-opacity="0.25"/>
<path d="M51.9047 21.9775V26.0635H50.2511H45.3938H43.7402V21.9775H51.9047Z" fill="#F2D59F" fill-opacity="0.25"/>
<path d="M50.6395 39.3021L50.7915 44.4672H44.8525L45.3933 26.0635H50.2507L50.6395 39.3021Z" fill="#F2D59F" fill-opacity="0.25"/>
<path d="M39.2605 11.8927H21.7402L30.5004 6.96436L39.2605 11.8927Z" fill="#8ECAC1" fill-opacity="0.25"/>
<path d="M34.5825 44.4673V48.5533H26.418V44.4673H27.5307H33.4697H34.5825Z" fill="#F2D59F" fill-opacity="0.25"/>
<path d="M34.5825 21.9775V26.0635H32.9289H28.0716H26.418V21.9775H34.5825Z" fill="#F2D59F" fill-opacity="0.25"/>
<path d="M33.3172 39.3021L33.4692 44.4672H27.5303L28.0711 26.0635H32.9284L33.3172 39.3021Z" fill="#F2D59F" fill-opacity="0.25"/>
<path d="M17.2602 44.4673V48.5533H9.0957V44.4673H10.2085H16.1474H17.2602Z" fill="#F2D59F" fill-opacity="0.25"/>
<path d="M17.2602 21.9775V26.0635H15.6066H10.7493H9.0957V21.9775H17.2602Z" fill="#F2D59F" fill-opacity="0.25"/>
<path d="M15.9949 39.3021L16.1469 44.4672H10.208L10.7488 26.0635H15.6061L15.9949 39.3021Z" fill="#F2D59F" fill-opacity="0.25"/>
<path d="M17.2409 39.2679L16.8516 26.0288L14.3603 26.1021L14.7497 39.3411L17.2409 39.2679Z" fill="#184372"/>
<path d="M11.9951 26.1011L9.50391 26.0278L8.96261 44.4321L11.4538 44.5053L11.9951 26.1011Z" fill="#184372"/>
<path d="M17.3912 44.4308L17.2393 39.2656L14.748 39.3389L14.9 44.5041L17.3912 44.4308Z" fill="#184372"/>
<path d="M17.2602 27.2475H15.6067C14.9528 27.2475 14.4229 26.7176 14.4229 26.0637C14.4229 25.4099 14.9528 24.8799 15.6067 24.8799H16.0764V21.9777C16.0764 21.3239 16.6064 20.7939 17.2602 20.7939C17.9141 20.7939 18.444 21.3239 18.444 21.9777V26.0637C18.444 26.7176 17.9141 27.2475 17.2602 27.2475Z" fill="#184372"/>
<path d="M15.6063 24.8799H10.749V27.2475H15.6063V24.8799Z" fill="#184372"/>
<path d="M10.7495 27.2475H9.09591C8.44208 27.2475 7.91211 26.7176 7.91211 26.0637V21.9777C7.91211 21.3239 8.44208 20.7939 9.09591 20.7939C9.74974 20.7939 10.2797 21.3239 10.2797 21.9777V24.8799H10.7495C11.4033 24.8799 11.9333 25.4099 11.9333 26.0637C11.9333 26.7176 11.4033 27.2475 10.7495 27.2475Z" fill="#184372"/>
<path d="M9.09591 49.7373C8.44208 49.7373 7.91211 49.2073 7.91211 48.5535V44.4675C7.91211 43.8137 8.44208 43.2837 9.09591 43.2837H10.2087C10.8624 43.2837 11.3925 43.8137 11.3925 44.4675C11.3925 45.0975 10.9004 45.6125 10.2797 45.6492V48.5535C10.2797 49.2073 9.74974 49.7373 9.09591 49.7373Z" fill="#184372"/>
<path d="M16.1479 43.2837H10.209V45.6513H16.1479V43.2837Z" fill="#184372"/>
<path d="M17.2604 49.7373C16.6066 49.7373 16.0766 49.2073 16.0766 48.5535V45.6492C15.456 45.6124 14.9639 45.0974 14.9639 44.4675C14.9639 43.8137 15.4938 43.2837 16.1477 43.2837H17.2604C17.9143 43.2837 18.4442 43.8137 18.4442 44.4675V48.5535C18.4442 49.2073 17.9143 49.7373 17.2604 49.7373Z" fill="#184372"/>
<path d="M34.5642 39.2684L34.1748 26.0293L31.6835 26.1026L32.0728 39.3416L34.5642 39.2684Z" fill="#184372"/>
<path d="M29.3174 26.1011L26.8262 26.0278L26.2849 44.4321L28.7761 44.5053L29.3174 26.1011Z" fill="#184372"/>
<path d="M34.7134 44.4313L34.5615 39.2661L32.0702 39.3394L32.2221 44.5045L34.7134 44.4313Z" fill="#184372"/>
<path d="M34.5825 27.2475H32.9289C32.2751 27.2475 31.7451 26.7176 31.7451 26.0637C31.7451 25.4099 32.2751 24.8799 32.9289 24.8799H33.3987V21.9777C33.3987 21.3239 33.9287 20.7939 34.5825 20.7939C35.2363 20.7939 35.7663 21.3239 35.7663 21.9777V26.0637C35.7663 26.7176 35.2363 27.2475 34.5825 27.2475Z" fill="#184372"/>
<path d="M32.9286 24.8799H28.0713V27.2475H32.9286V24.8799Z" fill="#184372"/>
<path d="M28.0718 27.2475H26.4182C25.7645 27.2475 25.2344 26.7176 25.2344 26.0637V21.9777C25.2344 21.3239 25.7645 20.7939 26.4182 20.7939C27.072 20.7939 27.602 21.3239 27.602 21.9777V24.8799H28.0718C28.7255 24.8799 29.2556 25.4099 29.2556 26.0637C29.2556 26.7176 28.7255 27.2475 28.0718 27.2475Z" fill="#184372"/>
<path d="M26.4182 49.7373C25.7645 49.7373 25.2344 49.2073 25.2344 48.5535V44.4675C25.2344 43.8137 25.7645 43.2837 26.4182 43.2837H27.5309C28.1848 43.2837 28.7147 43.8137 28.7147 44.4675C28.7147 45.0975 28.2227 45.6125 27.602 45.6492V48.5535C27.602 49.2073 27.072 49.7373 26.4182 49.7373Z" fill="#184372"/>
<path d="M33.4692 43.2837H27.5303V45.6513H33.4692V43.2837Z" fill="#184372"/>
<path d="M34.5827 49.7373C33.9289 49.7373 33.3989 49.2073 33.3989 48.5535V45.6492C32.7781 45.6124 32.2861 45.0974 32.2861 44.4675C32.2861 43.8137 32.8161 43.2837 33.4699 43.2837H34.5827C35.2365 43.2837 35.7665 43.8137 35.7665 44.4675V48.5535C35.7665 49.2073 35.2365 49.7373 34.5827 49.7373Z" fill="#184372"/>
<path d="M51.8865 39.2689L51.4971 26.0298L49.0057 26.1031L49.3951 39.3421L51.8865 39.2689Z" fill="#184372"/>
<path d="M46.6408 26.1016L44.1494 26.0283L43.6081 44.4325L46.0995 44.5058L46.6408 26.1016Z" fill="#184372"/>
<path d="M52.0347 44.4318L51.8828 39.2666L49.3915 39.3399L49.5434 44.505L52.0347 44.4318Z" fill="#184372"/>
<path d="M51.9048 27.2475H50.2512C49.5974 27.2475 49.0674 26.7176 49.0674 26.0637C49.0674 25.4099 49.5974 24.8799 50.2512 24.8799H50.721V21.9777C50.721 21.3239 51.2509 20.7939 51.9048 20.7939C52.5586 20.7939 53.0886 21.3239 53.0886 21.9777V26.0637C53.0886 26.7176 52.5586 27.2475 51.9048 27.2475Z" fill="#184372"/>
<path d="M50.2509 24.8799H45.3936V27.2475H50.2509V24.8799Z" fill="#184372"/>
<path d="M45.394 27.2475H43.7404C43.0866 27.2475 42.5566 26.7176 42.5566 26.0637V21.9777C42.5566 21.3239 43.0866 20.7939 43.7404 20.7939C44.3943 20.7939 44.9242 21.3239 44.9242 21.9777V24.8799H45.394C46.0479 24.8799 46.5778 25.4099 46.5778 26.0637C46.5778 26.7176 46.0479 27.2475 45.394 27.2475Z" fill="#184372"/>
<path d="M43.7404 49.7373C43.0866 49.7373 42.5566 49.2073 42.5566 48.5535V44.4675C42.5566 43.8137 43.0866 43.2837 43.7404 43.2837H44.8532C45.507 43.2837 46.037 43.8137 46.037 44.4675C46.037 45.0975 45.5451 45.6125 44.9242 45.6492V48.5535C44.9242 49.2073 44.3943 49.7373 43.7404 49.7373Z" fill="#184372"/>
<path d="M50.7915 43.2837H44.8525V45.6513H50.7915V43.2837Z" fill="#184372"/>
<path d="M51.904 49.7373C51.2502 49.7373 50.7202 49.2073 50.7202 48.5535V45.6492C50.0995 45.6124 49.6074 45.0974 49.6074 44.4675C49.6074 43.8137 50.1374 43.2837 50.7912 43.2837H51.904C52.5578 43.2837 53.0878 43.8137 53.0878 44.4675V48.5535C53.0878 49.2073 52.5578 49.7373 51.904 49.7373Z" fill="#184372"/>
<path d="M55.8113 54.8998C55.1232 54.8998 54.5652 54.3418 54.5652 53.6537V49.7993H6.43557V53.6537C6.43557 54.3418 5.87769 54.8998 5.18947 54.8998C4.50124 54.8998 3.94336 54.3418 3.94336 53.6537V48.5532C3.94336 47.8651 4.50124 47.3071 5.18947 47.3071H55.8113C56.4994 47.3071 57.0574 47.8651 57.0574 48.5532V53.6537C57.0574 54.3418 56.4995 54.8998 55.8113 54.8998Z" fill="#184372"/>
<path d="M58.2883 18.1235H55.811C55.1229 18.1235 54.5649 17.5656 54.5649 16.8774C54.5649 16.6666 54.6173 16.4681 54.7096 16.2939L30.5001 2.67586L6.29065 16.2939C6.38298 16.468 6.43532 16.6665 6.43532 16.8774C6.43532 17.5656 5.87744 18.1235 5.18922 18.1235H2.71196C2.14535 18.1235 1.65002 17.7413 1.5066 17.1931C1.36305 16.6451 1.60728 16.069 2.10112 15.7912L29.8893 0.160093C30.2687 -0.0533645 30.7319 -0.0533645 31.1111 0.160093L58.8993 15.7912C59.3931 16.069 59.6374 16.6451 59.4939 17.1931C59.3502 17.7412 58.8549 18.1235 58.2883 18.1235Z" fill="#184372"/>
<path d="M39.26 13.0142H21.7397C21.2298 13.0142 20.7841 12.6702 20.6549 12.1769C20.5257 11.6836 20.7455 11.1654 21.1898 10.9153L29.95 5.98679C30.2914 5.79477 30.7083 5.79477 31.0498 5.98679L39.8099 10.9153C40.2543 11.1654 40.4741 11.6836 40.3448 12.1769C40.2156 12.6702 39.7699 13.0142 39.26 13.0142ZM26.0204 10.7712H34.9792L30.4999 8.25097L26.0204 10.7712Z" fill="#184372"/>
<path d="M55.8113 23.2239H5.18947C4.50124 23.2239 3.94336 22.666 3.94336 21.9778V16.8775C3.94336 16.1894 4.50124 15.6313 5.18947 15.6313H55.8113C56.4994 15.6313 57.0574 16.1894 57.0574 16.8775V21.9778C57.0574 22.6659 56.4995 23.2239 55.8113 23.2239ZM6.43557 20.7317H54.5652V18.1236H6.43557V20.7317Z" fill="#184372"/>
<path d="M58.2882 59.9997H2.71193C2.0237 59.9997 1.46582 59.4417 1.46582 58.7536V53.6533C1.46582 52.9652 2.0237 52.4072 2.71193 52.4072H58.2882C58.9765 52.4072 59.5344 52.9652 59.5344 53.6533V58.7536C59.5344 59.4419 58.9765 59.9997 58.2882 59.9997ZM3.95803 57.5075H57.0421V54.8994H3.95803V57.5075Z" fill="#184372"/>
</svg>
