<svg width="60" height="60" viewBox="0 0 60 60" fill="none" xmlns="http://www.w3.org/2000/svg">
<g clip-path="url(#clip0_1527_1422)">
<path d="M15 52.5H9.375V58.125H15V52.5Z" fill="#506C7F" fill-opacity="0.25"/>
<path d="M50.625 52.5H45V58.125H50.625V52.5Z" fill="#506C7F" fill-opacity="0.25"/>
<path d="M54.375 48.75C54.375 49.785 53.535 50.625 52.5 50.625H7.5C6.465 50.625 5.625 49.785 5.625 48.75V9.375C5.625 5.23312 8.98312 1.875 13.125 1.875H46.875C51.0169 1.875 54.375 5.23312 54.375 9.375V48.75Z" fill="#8ECAC1" fill-opacity="0.25"/>
<path d="M1.875 26.25C1.875 27.285 2.715 28.125 3.75 28.125V18.749H1.875V26.25Z" fill="#B4CCB9" fill-opacity="0.25"/>
<path d="M56.25 18.749V28.125C57.285 28.125 58.125 27.285 58.125 26.25V18.749H56.25Z" fill="#B4CCB9" fill-opacity="0.25"/>
<path d="M50.625 11.25H9.375V33.75H50.625V11.25Z" fill="white" fill-opacity="0.25"/>
<path d="M50.625 11.25H9.375V33.75H50.625V11.25Z" fill="#F2D59F" fill-opacity="0.25"/>
<path d="M47.8125 39.375C45.7416 39.375 44.0625 41.0541 44.0625 43.125C44.0625 45.1959 45.7416 46.875 47.8125 46.875C49.8834 46.875 51.5625 45.1959 51.5625 43.125C51.5625 41.0541 49.8834 39.375 47.8125 39.375ZM47.8125 45C46.7775 45 45.9375 44.16 45.9375 43.125C45.9375 42.09 46.7775 41.25 47.8125 41.25C48.8475 41.25 49.6875 42.09 49.6875 43.125C49.6875 44.16 48.8475 45 47.8125 45Z" fill="#184372"/>
<path d="M12.1875 39.375C10.1166 39.375 8.4375 41.0541 8.4375 43.125C8.4375 45.1959 10.1166 46.875 12.1875 46.875C14.2584 46.875 15.9375 45.1959 15.9375 43.125C15.9375 41.0541 14.2584 39.375 12.1875 39.375ZM12.1875 45C11.1525 45 10.3125 44.16 10.3125 43.125C10.3125 42.09 11.1525 41.25 12.1875 41.25C13.2225 41.25 14.0625 42.09 14.0625 43.125C14.0625 44.16 13.2225 45 12.1875 45Z" fill="#184372"/>
<path d="M26.25 6.5625H33.75C34.2684 6.5625 34.6875 6.14344 34.6875 5.625C34.6875 5.10656 34.2684 4.6875 33.75 4.6875H26.25C25.7316 4.6875 25.3125 5.10656 25.3125 5.625C25.3125 6.14344 25.7316 6.5625 26.25 6.5625Z" fill="#184372"/>
<path d="M47.1499 16.6015C47.3327 16.7843 47.5727 16.8762 47.8127 16.8762C48.0527 16.8762 48.2927 16.7843 48.4755 16.6015C48.8421 16.235 48.8421 15.6425 48.4755 15.2759L46.6005 13.4009C46.234 13.0343 45.6415 13.0343 45.2749 13.4009C44.9084 13.7675 44.9084 14.36 45.2749 14.7265L47.1499 16.6015Z" fill="#184372"/>
<path d="M47.1499 21.288C47.3327 21.4709 47.5727 21.5627 47.8127 21.5627C48.0527 21.5627 48.2927 21.4709 48.4755 21.288C48.8421 20.9215 48.8421 20.329 48.4755 19.9624L41.913 13.3999C41.5465 13.0334 40.954 13.0334 40.5874 13.3999C40.2209 13.7665 40.2209 14.359 40.5874 14.7255L47.1499 21.288Z" fill="#184372"/>
<path d="M8.4375 9.375C7.91906 9.375 7.5 9.79406 7.5 10.3125V34.6875C7.5 35.2059 7.91906 35.625 8.4375 35.625H51.5625C52.0809 35.625 52.5 35.2059 52.5 34.6875V10.3125C52.5 9.79406 52.0809 9.375 51.5625 9.375H8.4375ZM16.875 33.75C16.875 31.6791 18.5541 30 20.625 30C22.6959 30 24.375 31.6791 24.375 33.75H16.875ZM29.0625 33.75H26.25C26.25 30.6431 23.7319 28.125 20.625 28.125C17.5181 28.125 15 30.6431 15 33.75H9.375V11.25H29.0625V33.75ZM50.625 33.75H30.9375V11.25H50.625V33.75Z" fill="#184372"/>
<path d="M40.3125 38.4375H19.6875C19.1691 38.4375 18.75 38.8566 18.75 39.375V46.875C18.75 47.3934 19.1691 47.8125 19.6875 47.8125H40.3125C40.8309 47.8125 41.25 47.3934 41.25 46.875V39.375C41.25 38.8566 40.8309 38.4375 40.3125 38.4375ZM39.375 45.9375H20.625V40.3125H39.375V45.9375Z" fill="#184372"/>
<path d="M60 17.8116C60 17.2931 59.5809 16.8741 59.0625 16.8741H56.25V9.375C56.25 4.19719 52.0519 0 46.875 0H13.125C7.94719 0 3.75 4.19813 3.75 9.375V16.8741H0.9375C0.419063 16.8741 0 17.2931 0 17.8116V26.2491C0 28.32 1.67906 30 3.75 30V48.75C3.75 50.8228 5.42719 52.5 7.5 52.5V59.0625C7.5 59.5809 7.91906 60 8.4375 60H15.9375C16.4559 60 16.875 59.5809 16.875 59.0625V52.5H43.125V59.0625C43.125 59.5809 43.5441 60 44.0625 60H51.5625C52.0809 60 52.5 59.5809 52.5 59.0625V52.5C54.5728 52.5 56.25 50.8228 56.25 48.75V30C58.3209 30 60 28.3209 60 26.25V17.8116ZM1.875 26.25V18.7491H3.75V28.125C2.715 28.125 1.875 27.285 1.875 26.25ZM15 58.125H9.375V52.5H15V58.125ZM50.625 58.125H45V52.5H50.625V58.125ZM54.375 48.75C54.375 49.785 53.535 50.625 52.5 50.625H7.5C6.465 50.625 5.625 49.785 5.625 48.75V9.375C5.625 5.23312 8.98312 1.875 13.125 1.875H46.875C51.0169 1.875 54.375 5.23312 54.375 9.375V48.75ZM58.125 26.25C58.125 27.285 57.285 28.125 56.25 28.125V18.7491H58.125V26.25Z" fill="#184372"/>
<path d="M39.375 40.3125H20.625V45.9375H39.375V40.3125Z" fill="#F2D59F" fill-opacity="0.25"/>
<path d="M47.8125 45C48.848 45 49.6875 44.1605 49.6875 43.125C49.6875 42.0895 48.848 41.25 47.8125 41.25C46.777 41.25 45.9375 42.0895 45.9375 43.125C45.9375 44.1605 46.777 45 47.8125 45Z" fill="#F9EBB2" fill-opacity="0.25"/>
<path d="M12.1875 45C13.223 45 14.0625 44.1605 14.0625 43.125C14.0625 42.0895 13.223 41.25 12.1875 41.25C11.152 41.25 10.3125 42.0895 10.3125 43.125C10.3125 44.1605 11.152 45 12.1875 45Z" fill="#F9EBB2" fill-opacity="0.25"/>
</g>
<defs>
<clipPath id="clip0_1527_1422">
<rect width="60" height="60" fill="white"/>
</clipPath>
</defs>
</svg>
