<svg width="54" height="60" viewBox="0 0 54 60" fill="none" xmlns="http://www.w3.org/2000/svg">
<path d="M51.7938 17.2891V56.4485C51.7938 57.6248 50.8391 58.5796 49.6627 58.5796H35.2637V58.4474V37.9308V17.4141V17.2891H51.7938Z" fill="#FF7124" fill-opacity="0.25"/>
<path d="M51.794 3.55198V17.289H35.2639H18.7352H2.20508V3.55198C2.20508 2.37562 3.1598 1.4209 4.33616 1.4209H49.6629C50.8393 1.4209 51.794 2.37562 51.794 3.55198Z" fill="#8ECAC1" fill-opacity="0.25"/>
<path d="M35.2631 58.4473V58.5795H18.7344V58.4473V37.9307H35.1594H35.2631V58.4473ZM30.9299 50.9786C30.9299 50.3094 30.3872 49.7667 29.718 49.7667C29.0488 49.7667 28.5061 50.3094 28.5061 50.9786C28.5061 51.6478 29.0488 52.1905 29.718 52.1905C30.3872 52.1905 30.9299 51.6478 30.9299 50.9786ZM25.4899 45.5386C25.4899 44.8695 24.9486 44.3268 24.278 44.3268C23.6089 44.3268 23.0676 44.8695 23.0676 45.5386C23.0676 46.2078 23.6089 46.7505 24.278 46.7505C24.9486 46.7505 25.4899 46.2078 25.4899 45.5386Z" fill="#E6B263" fill-opacity="0.25"/>
<path d="M35.2631 17.4141V37.9308H35.1594H18.7344V17.4141V17.2891H35.2631V17.4141Z" fill="#F2D59F" fill-opacity="0.25"/>
<path d="M29.7197 52.1904C30.389 52.1904 30.9316 51.6478 30.9316 50.9785C30.9316 50.3092 30.389 49.7666 29.7197 49.7666C29.0504 49.7666 28.5078 50.3092 28.5078 50.9785C28.5078 51.6478 29.0504 52.1904 29.7197 52.1904Z" fill="#184372"/>
<path d="M24.2788 44.3267C24.9494 44.3267 25.4907 44.8694 25.4907 45.5385C25.4907 46.2077 24.9494 46.7504 24.2788 46.7504C23.6097 46.7504 23.0684 46.2077 23.0684 45.5385C23.0684 44.8694 23.6097 44.3267 24.2788 44.3267Z" fill="#184372"/>
<path d="M18.7352 58.4473V58.5795H4.33616C3.1598 58.5795 2.20508 57.6247 2.20508 56.4484V37.9307H2.30879H18.7352V58.4473Z" fill="#F2D59F" fill-opacity="0.25"/>
<path d="M18.7352 17.4141V37.9308H2.30879H2.20508V17.2891H18.7352V17.4141Z" fill="#E6B263" fill-opacity="0.25"/>
<path d="M49.6637 60H4.33697C2.3785 60 0.785156 58.4067 0.785156 56.4482V3.55181C0.785156 1.59334 2.3785 0 4.33697 0H49.6637C51.6222 0 53.2155 1.59334 53.2155 3.55181V56.4482C53.2155 58.4067 51.6222 60 49.6637 60ZM4.33697 2.84145C3.94527 2.84145 3.6266 3.16012 3.6266 3.55181V56.4482C3.6266 56.8399 3.94527 57.1586 4.33697 57.1586H49.6637C50.0554 57.1586 50.3741 56.8399 50.3741 56.4482V3.55181C50.3741 3.16012 50.0554 2.84145 49.6637 2.84145H4.33697Z" fill="#184372"/>
<path d="M51.7948 18.7096H2.20588C1.42121 18.7096 0.785156 18.0736 0.785156 17.2889C0.785156 16.5042 1.42121 15.8682 2.20588 15.8682H51.7948C52.5795 15.8682 53.2155 16.5042 53.2155 17.2889C53.2155 18.0736 52.5795 18.7096 51.7948 18.7096Z" fill="#184372"/>
<path d="M35.2645 59.8679C34.4798 59.8679 33.8438 59.2319 33.8438 58.4472V17.4139C33.8438 16.6292 34.4798 15.9932 35.2645 15.9932C36.0491 15.9932 36.6852 16.6292 36.6852 17.4139V58.4472C36.6852 59.2319 36.0491 59.8679 35.2645 59.8679Z" fill="#184372"/>
<path d="M35.1608 39.3512H2.3094C1.52473 39.3512 0.888672 38.7152 0.888672 37.9305C0.888672 37.1458 1.52473 36.5098 2.3094 36.5098H35.1608C35.9455 36.5098 36.5815 37.1458 36.5815 37.9305C36.5815 38.7152 35.9455 39.3512 35.1608 39.3512Z" fill="#184372"/>
<path d="M13.9833 29.0309H6.95783C6.17317 29.0309 5.53711 28.3948 5.53711 27.6102C5.53711 26.8255 6.17317 26.1895 6.95783 26.1895H13.9833C14.768 26.1895 15.404 26.8255 15.404 27.6102C15.404 28.3948 14.768 29.0309 13.9833 29.0309Z" fill="#184372"/>
<path d="M10.4715 32.5432C9.68684 32.5432 9.05078 31.9071 9.05078 31.1225V24.097C9.05078 23.3123 9.68684 22.6763 10.4715 22.6763C11.2562 22.6763 11.8922 23.3123 11.8922 24.097V31.1225C11.8922 31.9071 11.2562 32.5432 10.4715 32.5432Z" fill="#184372"/>
<path d="M30.5829 29.0309H23.4168C22.6322 29.0309 21.9961 28.3948 21.9961 27.6102C21.9961 26.8255 22.6322 26.1895 23.4168 26.1895H30.5829C31.3676 26.1895 32.0037 26.8255 32.0037 27.6102C32.0037 28.3948 31.3676 29.0309 30.5829 29.0309Z" fill="#184372"/>
<path d="M13.1906 52.3991C12.8269 52.3991 12.4635 52.2604 12.1861 51.983L6.74624 46.543C6.19145 45.9882 6.19131 45.0886 6.7461 44.5338C7.30089 43.979 8.2005 43.9789 8.75529 44.5338L14.1952 49.9738C14.75 50.5286 14.75 51.4282 14.1952 51.983C13.9178 52.2603 13.5542 52.3991 13.1906 52.3991Z" fill="#184372"/>
<path d="M7.75084 52.3992C7.38713 52.3992 7.02343 52.2604 6.74596 51.9828C6.19131 51.4279 6.19145 50.5283 6.74639 49.9736L12.1859 44.5341C12.7404 43.979 13.64 43.9789 14.1951 44.5337C14.75 45.0883 14.7503 45.9879 14.1957 46.5429L8.75515 51.9832C8.47768 52.2606 8.11426 52.3992 7.75084 52.3992Z" fill="#184372"/>
<path d="M24.2801 52.399C23.9165 52.399 23.5528 52.2604 23.2755 51.9829C22.7207 51.4281 22.7207 50.5285 23.2755 49.9737L28.7154 44.5338C29.2702 43.979 30.1698 43.979 30.7247 44.5338C31.2795 45.0886 31.2795 45.9882 30.7247 46.5431L25.2848 51.983C25.0073 52.2604 24.6436 52.399 24.2801 52.399Z" fill="#184372"/>
<path d="M47.1195 36.8746H39.8582C39.0736 36.8746 38.4375 36.2386 38.4375 35.4539C38.4375 34.6693 39.0736 34.0332 39.8582 34.0332H47.1195C47.9042 34.0332 48.5403 34.6693 48.5403 35.4539C48.5403 36.2386 47.9042 36.8746 47.1195 36.8746Z" fill="#184372"/>
<path d="M47.1195 41.8346H39.8582C39.0736 41.8346 38.4375 41.1986 38.4375 40.4139C38.4375 39.6292 39.0736 38.9932 39.8582 38.9932H47.1195C47.9042 38.9932 48.5403 39.6292 48.5403 40.4139C48.5403 41.1986 47.9042 41.8346 47.1195 41.8346Z" fill="#184372"/>
<path d="M18.7352 59.8679C17.9505 59.8679 17.3145 59.2319 17.3145 58.4472V17.4139C17.3145 16.6292 17.9505 15.9932 18.7352 15.9932C19.5198 15.9932 20.1559 16.6292 20.1559 17.4139V58.4472C20.1559 59.2319 19.5198 59.8679 18.7352 59.8679Z" fill="#184372"/>
</svg>
