<svg width="61" height="60" viewBox="0 0 61 60" fill="none" xmlns="http://www.w3.org/2000/svg">
<g clip-path="url(#clip0_741_16547)">
<path d="M54.8525 25.4019L49.0413 28.3069V28.3081L30.5 37.5781L11.9588 28.3081V28.3069L1.75 23.2031L30.5 8.82812L59.25 23.2031L54.8525 25.4019Z" fill="#FF7124" fill-opacity="0.25"/>
<path d="M54.8637 42.8506L58.0175 51.1718H51.71L54.8637 42.8506Z" fill="#8ECAC1" fill-opacity="0.25"/>
<path d="M54.8638 37.5781C56.32 37.5781 57.5 38.7581 57.5 40.2144C57.5 41.6694 56.32 42.8506 54.8638 42.8506C53.4075 42.8506 52.2275 41.6694 52.2275 40.2144C52.2275 38.7581 53.4075 37.5781 54.8638 37.5781Z" fill="#8ECAC1" fill-opacity="0.25"/>
<path d="M49.0415 28.3081V38.6319C49.0415 43.7519 40.7402 47.9019 30.5002 47.9019C20.2602 47.9019 11.959 43.7519 11.959 38.6319V28.3081L30.5002 37.5781L49.0415 28.3081Z" fill="#F2D59F" fill-opacity="0.25"/>
<path d="M30.4996 38.8279C30.3081 38.8279 30.1164 38.7839 29.9406 38.6959L11.3993 29.4259C10.7818 29.1172 10.5316 28.3663 10.8402 27.7489C11.1489 27.1313 11.8997 26.8812 12.5172 27.1898L30.4996 36.1804L48.4818 27.1899C49.0993 26.8813 49.8502 27.1316 50.1588 27.7491C50.4676 28.3664 50.2172 29.1173 49.5997 29.4261L31.0584 38.6961C30.8826 38.7839 30.6911 38.8279 30.4996 38.8279Z" fill="#3E464E"/>
<path d="M49.0423 29.557C48.5836 29.557 48.1421 29.3038 47.9231 28.8657C47.6145 28.2482 47.8649 27.4974 48.4824 27.1887L56.455 23.203L30.5 10.2255L4.54525 23.2029L12.5177 27.1887C13.1353 27.4974 13.3855 28.2482 13.0769 28.8657C12.7682 29.4832 12.0173 29.7334 11.3999 29.4248L1.19112 24.321C0.7675 24.1093 0.5 23.6765 0.5 23.203C0.5 22.7295 0.7675 22.2967 1.191 22.085L29.941 7.71003C30.293 7.53416 30.7071 7.53416 31.059 7.71003L59.809 22.085C60.2325 22.2968 60.5 22.7297 60.5 23.203C60.5 23.6765 60.2325 24.1093 59.809 24.321L49.6001 29.4249C49.4207 29.5145 49.23 29.557 49.0423 29.557Z" fill="#3E464E"/>
<path d="M30.5002 49.152C19.4024 49.152 10.709 44.531 10.709 38.632V28.3082C10.709 27.6179 11.2686 27.0576 11.959 27.0576C12.6494 27.0576 13.209 27.6166 13.209 28.307V38.632C13.209 40.5814 14.9365 42.563 17.9486 44.069C21.2804 45.7347 25.7379 46.652 30.5002 46.652C35.2626 46.652 39.7201 45.7346 43.0519 44.069C46.064 42.5631 47.7915 40.5814 47.7915 38.632V28.3082C47.7915 27.6179 48.3511 27.0576 49.0415 27.0576C49.7319 27.0576 50.2915 27.6166 50.2915 28.307V38.632C50.2915 44.531 41.5981 49.152 30.5002 49.152Z" fill="#3E464E"/>
<path d="M54.8639 38.9317C54.1735 38.9317 53.6139 38.3721 53.6139 37.6817V26.545L30.3877 24.4479C29.7 24.3857 29.193 23.7781 29.2552 23.0905C29.3173 22.4029 29.9235 21.8946 30.6125 21.958L54.965 24.1567C54.9724 24.1574 54.9797 24.1581 54.9869 24.159C55.6215 24.2276 56.1139 24.7646 56.1139 25.403V37.6817C56.1139 38.3721 55.5543 38.9317 54.8639 38.9317Z" fill="#3E464E"/>
<path d="M54.8638 44.1006C52.7209 44.1006 50.9775 42.3573 50.9775 40.2144C50.9775 38.0715 52.7209 36.3281 54.8638 36.3281C57.0067 36.3281 58.75 38.0715 58.75 40.2144C58.75 42.3573 57.0067 44.1006 54.8638 44.1006ZM54.8638 38.8281C54.0994 38.8281 53.4775 39.45 53.4775 40.2144C53.4775 40.9788 54.0994 41.6006 54.8638 41.6006C55.6282 41.6006 56.25 40.9788 56.25 40.2144C56.25 39.45 55.6282 38.8281 54.8638 38.8281Z" fill="#3E464E"/>
<path d="M58.0175 52.4217H51.71C51.2992 52.4217 50.9147 52.22 50.6814 51.882C50.448 51.544 50.3955 51.1128 50.5411 50.7288L53.6949 42.4076C53.879 41.9218 54.3442 41.6006 54.8637 41.6006C55.3832 41.6006 55.8485 41.9218 56.0326 42.4076L59.1864 50.7288C59.332 51.113 59.2795 51.544 59.0461 51.882C58.8127 52.22 58.4282 52.4217 58.0175 52.4217ZM53.5205 49.9217H56.207L54.8637 46.3776L53.5205 49.9217Z" fill="#3E464E"/>
</g>
<defs>
<clipPath id="clip0_741_16547">
<rect width="60" height="60" fill="white" transform="translate(0.5)"/>
</clipPath>
</defs>
</svg>
