<svg width="60" height="60" viewBox="0 0 60 60" fill="none" xmlns="http://www.w3.org/2000/svg">
<g clip-path="url(#clip0_1527_1494)">
<path d="M24.7772 44.9276H3.31928C2.22016 44.9276 1.32812 44.0356 1.32812 42.9365V34.0254H1.61352H58.6733V42.9365C58.6733 44.0356 57.7812 44.9276 56.6821 44.9276H35.2241H24.7772ZM31.9348 39.4241C31.9348 38.4338 31.133 37.632 30.1427 37.632C29.1538 37.632 28.3507 38.4338 28.3507 39.4241C28.3507 40.4143 29.1538 41.2161 30.1427 41.2161C31.133 41.2161 31.9348 40.4143 31.9348 39.4241Z" fill="#F2D59F" fill-opacity="0.25"/>
<path d="M30.7918 21.8582L34.9865 19.6481L24.2184 15.2861L28.5817 26.0529L30.7918 21.8582ZM58.6733 7.93744V34.0255H1.61352H1.32812V7.93744C1.32812 6.83832 2.22016 5.94629 3.31928 5.94629H56.6821C57.7812 5.94629 58.6733 6.83832 58.6733 7.93744Z" fill="#8ECAC1" fill-opacity="0.25"/>
<path d="M42.4257 54.0193L42.4244 54.0525H17.5775L17.5762 54.0193C21.589 53.8269 24.7762 50.5202 24.7775 46.4596V46.4583V44.9277H35.2244V46.4583V46.4596C35.2257 50.5202 38.4129 53.8269 42.4257 54.0193Z" fill="#E6B263" fill-opacity="0.25"/>
<path d="M34.9869 19.6481L30.7922 21.8583L28.582 26.0529L24.2188 15.2861L34.9869 19.6481Z" fill="#FF7124" fill-opacity="0.25"/>
<path d="M30.1436 37.6318C31.1339 37.6318 31.9356 38.4336 31.9356 39.4239C31.9356 40.4141 31.1339 41.2159 30.1436 41.2159C29.1547 41.2159 28.3516 40.4141 28.3516 39.4239C28.3516 38.4336 29.1547 37.6318 30.1436 37.6318Z" fill="#184372"/>
<path d="M56.6814 46.2554H3.31858C1.48872 46.2554 0 44.7667 0 42.9368V7.93772C0 6.10786 1.48872 4.61914 3.31858 4.61914H56.6814C58.5113 4.61914 60 6.10786 60 7.93772V42.9368C60 44.7667 58.5113 46.2554 56.6814 46.2554ZM3.31858 7.27401C2.95261 7.27401 2.65487 7.57175 2.65487 7.93772V42.9368C2.65487 43.3028 2.95261 43.6006 3.31858 43.6006H56.6814C57.0474 43.6006 57.3451 43.3028 57.3451 42.9368V7.93772C57.3451 7.57175 57.0474 7.27401 56.6814 7.27401H3.31858Z" fill="#184372"/>
<path d="M28.5817 27.3811C28.5595 27.3811 28.5373 27.3806 28.5152 27.3794C27.9992 27.3536 27.5451 27.0309 27.3513 26.5523L22.9881 15.7855C22.7128 15.1059 23.0404 14.3319 23.7198 14.0566C24.3997 13.781 25.1734 14.1089 25.4485 14.7883L28.7388 22.9074L29.6173 21.24C29.959 20.5914 30.762 20.3424 31.4104 20.6843C32.0592 21.0262 32.3079 21.8289 31.9661 22.4776L29.7559 26.6723C29.5255 27.1098 29.0724 27.3811 28.5817 27.3811Z" fill="#184372"/>
<path d="M30.7928 23.1865C30.3159 23.1865 29.8551 22.9289 29.6174 22.4777C29.2756 21.8291 29.5243 21.0263 30.173 20.6844L31.8398 19.8062L23.72 16.5171C23.0406 16.2418 22.7129 15.4679 22.988 14.7884C23.2632 14.1087 24.0374 13.7813 24.7168 14.0564L35.4848 18.4184C35.9634 18.6123 36.2863 19.0664 36.312 19.5823C36.3378 20.0983 36.0621 20.5822 35.605 20.823L31.4103 23.0332C31.2131 23.1371 31.0014 23.1865 30.7928 23.1865Z" fill="#184372"/>
<path d="M34.2031 26.6002C33.8632 26.6002 33.5235 26.4706 33.2643 26.2113L29.8515 22.7971C29.3332 22.2787 29.3334 21.4381 29.8519 20.9199C30.3702 20.4015 31.2106 20.4018 31.7291 20.9202L35.142 24.3343C35.6602 24.8528 35.66 25.6933 35.1416 26.2116C34.8823 26.4707 34.5426 26.6002 34.2031 26.6002Z" fill="#184372"/>
<path d="M58.6723 35.3531H1.61259C0.879448 35.3531 0.285156 34.7588 0.285156 34.0257C0.285156 33.2925 0.879448 32.6982 1.61259 32.6982H58.6723C59.4053 32.6982 59.9998 33.2925 59.9998 34.0257C59.9998 34.7588 59.4053 35.3531 58.6723 35.3531Z" fill="#184372"/>
<path d="M42.4243 55.3805H17.5774C16.8444 55.3805 16.25 54.7862 16.25 54.053C16.25 53.3199 16.8444 52.7256 17.5774 52.7256H42.4243C43.1573 52.7256 43.7518 53.3199 43.7518 54.053C43.7518 54.7862 43.1573 55.3805 42.4243 55.3805Z" fill="#184372"/>
<path d="M42.7929 55.3554C42.6504 55.3554 42.5071 55.3523 42.3675 55.3462C37.6165 55.1183 33.8981 51.2154 33.8965 46.4606C33.8962 45.7275 34.4904 45.1331 35.2234 45.1328H35.2239C35.9568 45.1328 36.5511 45.7268 36.5514 46.4598C36.5525 49.7961 39.1606 52.5345 42.4888 52.6941C42.5857 52.6984 42.6889 52.7005 42.7929 52.7005C43.5261 52.7005 44.1204 53.2948 44.1204 54.0279C44.1204 54.7611 43.5261 55.3554 42.7929 55.3554Z" fill="#184372"/>
<path d="M17.2083 55.3554C16.4753 55.3554 15.8809 54.7611 15.8809 54.0279C15.8809 53.2948 16.4753 52.7005 17.2083 52.7005C17.3124 52.7005 17.4155 52.6984 17.5184 52.6939C20.8407 52.5344 23.4488 49.7961 23.45 46.4598C23.4503 45.7268 24.0446 45.1328 24.7775 45.1328C24.7775 45.1328 24.7777 45.1328 24.778 45.1328C25.5111 45.1331 26.1052 45.7275 26.1049 46.4606C26.1032 51.2154 22.3849 55.1182 17.6397 55.3458C17.4941 55.3522 17.3509 55.3554 17.2083 55.3554Z" fill="#184372"/>
<path d="M24.7767 47.7862C24.0435 47.7862 23.4492 47.1926 23.4492 46.4594V44.8997C23.4492 44.1666 24.0435 43.5723 24.7767 43.5723C25.5097 43.5723 26.1041 44.1666 26.1041 44.8997V46.4581C26.1041 47.1912 25.5098 47.7862 24.7767 47.7862Z" fill="#184372"/>
<path d="M35.2239 47.7862C34.4908 47.7862 33.8965 47.1926 33.8965 46.4594V44.8997C33.8965 44.1666 34.4908 43.5723 35.2239 43.5723C35.9569 43.5723 36.5514 44.1666 36.5514 44.8997V46.4581C36.5514 47.1912 35.9569 47.7862 35.2239 47.7862Z" fill="#184372"/>
</g>
<defs>
<clipPath id="clip0_1527_1494">
<rect width="60" height="60" fill="white"/>
</clipPath>
</defs>
</svg>
