<svg width="61" height="60" viewBox="0 0 61 60" fill="none" xmlns="http://www.w3.org/2000/svg">
<g clip-path="url(#clip0_741_16576)">
<path d="M25.2763 44.9286H3.8183C2.71918 44.9286 1.82715 44.0365 1.82715 42.9374V34.0264H2.11255H59.1723V42.9374C59.1723 44.0365 58.2802 44.9286 57.1811 44.9286H35.7232H25.2763ZM32.4338 39.425C32.4338 38.4348 31.632 37.633 30.6418 37.633C29.6528 37.633 28.8497 38.4348 28.8497 39.425C28.8497 40.4153 29.6528 41.2171 30.6418 41.2171C31.632 41.2171 32.4338 40.4153 32.4338 39.425Z" fill="#F2D59F" fill-opacity="0.25"/>
<path d="M31.2909 21.8592L35.4856 19.649L24.7174 15.2871L29.0807 26.0539L31.2909 21.8592ZM59.1723 7.93842V34.0265H2.11255H1.82715V7.93842C1.82715 6.8393 2.71918 5.94727 3.8183 5.94727H57.1811C58.2802 5.94727 59.1723 6.8393 59.1723 7.93842Z" fill="#8ECAC1" fill-opacity="0.25"/>
<path d="M42.9248 54.0203L42.9234 54.0535H18.0765L18.0752 54.0203C22.088 53.8278 25.2752 50.5212 25.2765 46.4606V46.4592V44.9287H35.7234V46.4592V46.4606C35.7248 50.5212 38.9119 53.8278 42.9248 54.0203Z" fill="#E6B263" fill-opacity="0.25"/>
<path d="M35.4859 19.6491L31.2912 21.8592L29.081 26.0539L24.7178 15.2871L35.4859 19.6491Z" fill="#FF7124" fill-opacity="0.25"/>
<path d="M30.6416 37.6333C31.6319 37.6333 32.4337 38.4351 32.4337 39.4253C32.4337 40.4156 31.6319 41.2174 30.6416 41.2174C29.6527 41.2174 28.8496 40.4156 28.8496 39.4253C28.8496 38.4351 29.6527 37.6333 30.6416 37.6333Z" fill="#184372"/>
<path d="M57.1814 46.2559H3.81858C1.98872 46.2559 0.5 44.7672 0.5 42.9373V7.93821C0.5 6.10835 1.98872 4.61963 3.81858 4.61963H57.1814C59.0113 4.61963 60.5 6.10835 60.5 7.93821V42.9373C60.5 44.7672 59.0113 46.2559 57.1814 46.2559ZM3.81858 7.2745C3.45261 7.2745 3.15487 7.57224 3.15487 7.93821V42.9373C3.15487 43.3033 3.45261 43.601 3.81858 43.601H57.1814C57.5474 43.601 57.8451 43.3033 57.8451 42.9373V7.93821C57.8451 7.57224 57.5474 7.2745 57.1814 7.2745H3.81858Z" fill="#184372"/>
<path d="M29.0807 27.3811C29.0585 27.3811 29.0364 27.3806 29.0142 27.3794C28.4982 27.3536 28.0441 27.0309 27.8503 26.5523L23.4872 15.7855C23.2118 15.1059 23.5395 14.3319 24.2188 14.0566C24.8988 13.781 25.6724 14.1089 25.9476 14.7883L29.2379 22.9074L30.1164 21.24C30.458 20.5914 31.261 20.3424 31.9095 20.6843C32.5582 21.0262 32.8069 21.8289 32.4651 22.4776L30.2549 26.6723C30.0245 27.1098 29.5715 27.3811 29.0807 27.3811Z" fill="#184372"/>
<path d="M31.2928 23.1865C30.8159 23.1865 30.3551 22.9289 30.1174 22.4777C29.7756 21.8291 30.0243 21.0263 30.673 20.6844L32.3398 19.8062L24.22 16.5171C23.5406 16.2418 23.2129 15.4679 23.488 14.7884C23.7632 14.1087 24.5374 13.7813 25.2168 14.0564L35.9848 18.4184C36.4634 18.6123 36.7863 19.0664 36.812 19.5823C36.8378 20.0983 36.5621 20.5822 36.105 20.823L31.9103 23.0332C31.7131 23.1371 31.5014 23.1865 31.2928 23.1865Z" fill="#184372"/>
<path d="M34.704 26.6007C34.3642 26.6007 34.0245 26.471 33.7653 26.2118L30.3524 22.7976C29.8342 22.2791 29.8343 21.4386 30.3528 20.9204C30.8712 20.402 31.7116 20.4023 32.2301 20.9206L35.6429 24.3348C36.1612 24.8533 36.161 25.6938 35.6425 26.2121C35.3833 26.4712 35.0436 26.6007 34.704 26.6007Z" fill="#184372"/>
<path d="M59.1723 35.3536H2.11259C1.37945 35.3536 0.785156 34.7593 0.785156 34.0262C0.785156 33.293 1.37945 32.6987 2.11259 32.6987H59.1723C59.9053 32.6987 60.4998 33.293 60.4998 34.0262C60.4998 34.7593 59.9053 35.3536 59.1723 35.3536Z" fill="#184372"/>
<path d="M42.9234 55.3805H18.0765C17.3434 55.3805 16.749 54.7862 16.749 54.053C16.749 53.3199 17.3434 52.7256 18.0765 52.7256H42.9234C43.6564 52.7256 44.2508 53.3199 44.2508 54.053C44.2508 54.7862 43.6564 55.3805 42.9234 55.3805Z" fill="#184372"/>
<path d="M43.2929 55.3554C43.1504 55.3554 43.0071 55.3523 42.8675 55.3462C38.1165 55.1183 34.3981 51.2154 34.3965 46.4606C34.3962 45.7275 34.9904 45.1331 35.7234 45.1328H35.7239C36.4568 45.1328 37.0511 45.7268 37.0514 46.4598C37.0525 49.7961 39.6606 52.5345 42.9888 52.6941C43.0857 52.6984 43.1889 52.7005 43.2929 52.7005C44.0261 52.7005 44.6204 53.2948 44.6204 54.0279C44.6204 54.7611 44.0261 55.3554 43.2929 55.3554Z" fill="#184372"/>
<path d="M17.7073 55.3554C16.9743 55.3554 16.3799 54.7611 16.3799 54.0279C16.3799 53.2948 16.9743 52.7005 17.7073 52.7005C17.8114 52.7005 17.9145 52.6984 18.0174 52.6939C21.3397 52.5344 23.9478 49.7961 23.949 46.4598C23.9493 45.7268 24.5436 45.1328 25.2765 45.1328C25.2765 45.1328 25.2767 45.1328 25.277 45.1328C26.0101 45.1331 26.6042 45.7275 26.6039 46.4606C26.6022 51.2154 22.8839 55.1182 18.1387 55.3458C17.9931 55.3522 17.8499 55.3554 17.7073 55.3554Z" fill="#184372"/>
<path d="M25.2767 47.7872C24.5435 47.7872 23.9492 47.1936 23.9492 46.4604V44.9007C23.9492 44.1675 24.5435 43.5732 25.2767 43.5732C26.0097 43.5732 26.6041 44.1675 26.6041 44.9007V46.4591C26.6041 47.1922 26.0098 47.7872 25.2767 47.7872Z" fill="#184372"/>
<path d="M35.7239 47.7872C34.9908 47.7872 34.3965 47.1936 34.3965 46.4604V44.9007C34.3965 44.1675 34.9908 43.5732 35.7239 43.5732C36.4569 43.5732 37.0514 44.1675 37.0514 44.9007V46.4591C37.0514 47.1922 36.4569 47.7872 35.7239 47.7872Z" fill="#184372"/>
</g>
<defs>
<clipPath id="clip0_741_16576">
<rect width="60" height="60" fill="white" transform="translate(0.5)"/>
</clipPath>
</defs>
</svg>
