<svg width="24" height="24" viewBox="0 0 24 24" fill="none" xmlns="http://www.w3.org/2000/svg">
<path d="M17.2225 8.49066C17.1085 8.19199 16.9565 7.97732 16.738 7.75332C16.51 7.52932 16.2915 7.38932 15.9875 7.27732C15.7595 7.19332 15.4175 7.09066 14.781 7.05332C14.097 7.02532 13.888 7.01599 12.1495 7.01599C10.411 7.01599 10.202 7.01599 9.51805 7.05332C8.88155 7.08132 8.53955 7.18399 8.31155 7.27732C8.00755 7.38932 7.78905 7.53866 7.56105 7.75332C7.33305 7.97732 7.19055 8.19199 7.07655 8.49066C6.99105 8.71466 6.88655 9.05066 6.84855 9.67599C6.82005 10.348 6.81055 10.5533 6.81055 12.2613C6.81055 13.9693 6.81055 14.1747 6.84855 14.8467C6.87705 15.472 6.98155 15.808 7.07655 16.032C7.19055 16.3307 7.34255 16.5453 7.56105 16.7693C7.78905 16.9933 8.00755 17.1333 8.31155 17.2453C8.53955 17.3293 8.88155 17.432 9.51805 17.4693C10.202 17.4973 10.411 17.5067 12.1495 17.5067C13.888 17.5067 14.097 17.5067 14.781 17.4693C15.4175 17.4413 15.7595 17.3387 15.9875 17.2453C16.2915 17.1333 16.51 16.984 16.738 16.7693C16.966 16.5453 17.1085 16.3307 17.2225 16.032C17.308 15.808 17.4125 15.472 17.4505 14.8467C17.479 14.1747 17.4885 13.9693 17.4885 12.2613C17.4885 10.5533 17.4885 10.348 17.4505 9.67599C17.422 9.05066 17.308 8.71466 17.2225 8.49066ZM12.14 15.556C10.2875 15.556 8.79605 14.0813 8.79605 12.2707C8.79605 10.46 10.297 8.98532 12.14 8.98532C13.9925 8.98532 15.484 10.46 15.484 12.2707C15.484 14.0813 13.983 15.556 12.14 15.556ZM15.617 9.61066C15.18 9.61066 14.838 9.26532 14.838 8.84532C14.838 8.41599 15.1895 8.07999 15.617 8.07999C16.054 8.07999 16.396 8.42532 16.396 8.84532C16.4055 9.27466 16.054 9.61066 15.617 9.61066Z" fill="#123760"/>
<path d="M12.13 0.958618C5.89801 0.958618 0.853516 5.91462 0.853516 12.0373C0.853516 18.1599 5.89801 23.1159 12.13 23.1159C18.362 23.1159 23.4065 18.1599 23.4065 12.0373C23.4065 5.91462 18.3525 0.958618 12.13 0.958618ZM18.6185 14.9026C18.59 15.584 18.476 16.0506 18.3145 16.4613C18.1435 16.8813 17.925 17.2453 17.564 17.5999C17.203 17.9546 16.842 18.1786 16.405 18.3373C15.987 18.4959 15.512 18.5986 14.8185 18.636C14.125 18.6639 13.9065 18.6733 12.13 18.6733C10.3535 18.6733 10.135 18.6639 9.44152 18.636C8.74802 18.608 8.27301 18.4959 7.85501 18.3373C7.42751 18.1693 7.05702 17.9546 6.69602 17.5999C6.33502 17.2453 6.10702 16.8906 5.94552 16.4613C5.78402 16.0506 5.67952 15.584 5.64152 14.9026C5.61302 14.2213 5.60352 14.0066 5.60352 12.2613C5.60352 10.516 5.61302 10.3013 5.64152 9.61995C5.67002 8.93862 5.78402 8.47195 5.94552 8.06128C6.11652 7.64128 6.33502 7.27728 6.69602 6.92262C7.05702 6.56795 7.41801 6.34395 7.85501 6.18528C8.27301 6.02662 8.74802 5.92395 9.44152 5.88662C10.135 5.85862 10.3535 5.84929 12.13 5.84929C13.9065 5.84929 14.125 5.85862 14.8185 5.88662C15.512 5.91462 15.987 6.02662 16.405 6.18528C16.8325 6.35328 17.203 6.56795 17.564 6.92262C17.925 7.27728 18.153 7.63195 18.3145 8.06128C18.476 8.47195 18.5805 8.93862 18.6185 9.61995C18.6565 10.3013 18.6565 10.516 18.6565 12.2613C18.6565 14.0066 18.647 14.2213 18.6185 14.9026Z" fill="#123760"/>
<path d="M12.1403 14.3987C13.3418 14.3987 14.3158 13.4418 14.3158 12.2614C14.3158 11.0809 13.3418 10.124 12.1403 10.124C10.9388 10.124 9.96484 11.0809 9.96484 12.2614C9.96484 13.4418 10.9388 14.3987 12.1403 14.3987Z" fill="#123760"/>
</svg>
