<svg width="24" height="24" viewBox="0 0 24 24" fill="none" xmlns="http://www.w3.org/2000/svg">
<path d="M12.2062 0.958618C5.97419 0.958618 0.929688 5.91462 0.929688 12.0373C0.929688 18.1599 5.97419 23.1159 12.2062 23.1159C18.4382 23.1159 23.4827 18.1599 23.4827 12.0373C23.4827 5.91462 18.4287 0.958618 12.2062 0.958618ZM15.5217 7.67862C15.5217 7.67862 14.4007 7.67862 13.9542 7.67862C13.4032 7.67862 13.2892 7.90262 13.2892 8.46262C13.2892 8.92928 13.2892 9.81595 13.2892 9.81595H15.5217L15.3032 12.196H13.2797V19.3173H10.3822V12.2239H8.87169V9.80662H10.3822C10.3822 9.80662 10.3822 9.46128 10.3822 7.90262C10.3822 6.11995 11.3607 5.18662 13.5077 5.18662C13.8592 5.18662 15.5122 5.18662 15.5122 5.18662L15.5217 7.67862Z" fill="#123760"/>
</svg>
