<svg width="60" height="60" viewBox="0 0 60 60" fill="none" xmlns="http://www.w3.org/2000/svg">
<path d="M55.8168 4.08105V34.9852C55.8168 36.0907 54.9219 36.9856 53.8164 36.9856H30.0002H6.18395C5.07842 36.9856 4.18359 36.0907 4.18359 34.9852V4.08105H55.8168ZM25.8448 20.5333V12.3079H10.8234V20.5333H25.8448Z" fill="#F2D59F" fill-opacity="0.25"/>
<path d="M25.8456 12.3076H10.8242V20.5331H25.8456V12.3076Z" fill="#8ECAC1" fill-opacity="0.25"/>
<path d="M29.9996 57.2525C29.2631 57.2525 28.666 56.6554 28.666 55.919V36.9849C28.666 36.2485 29.2631 35.6514 29.9996 35.6514C30.736 35.6514 31.3332 36.2485 31.3332 36.9849V55.919C31.3332 56.6555 30.736 57.2525 29.9996 57.2525Z" fill="#184372"/>
<path d="M41.2015 57.2528C40.8601 57.2528 40.519 57.1225 40.2586 56.8622L29.0566 45.6602C28.5358 45.1394 28.5358 44.295 29.0566 43.7743C29.5775 43.2536 30.4216 43.2536 30.9427 43.7743L42.1446 54.9763C42.6654 55.497 42.6654 56.3414 42.1446 56.8622C41.8841 57.1226 41.5429 57.2528 41.2015 57.2528Z" fill="#184372"/>
<path d="M18.7984 57.2528C18.457 57.2528 18.1159 57.1225 17.8554 56.8622C17.3347 56.3414 17.3347 55.497 17.8554 54.9763L29.0574 43.7743C29.5783 43.2536 30.4224 43.2536 30.9435 43.7743C31.4642 44.295 31.4642 45.1394 30.9435 45.6602L19.7415 56.8622C19.4809 57.1226 19.1398 57.2528 18.7984 57.2528Z" fill="#184372"/>
<path d="M25.8451 21.8662H10.8238C10.0874 21.8662 9.49023 21.2691 9.49023 20.5327V12.3072C9.49023 11.5708 10.0874 10.9736 10.8238 10.9736H25.8451C26.5815 10.9736 27.1787 11.5708 27.1787 12.3072V20.5327C27.1787 21.2691 26.5815 21.8662 25.8451 21.8662ZM12.1574 19.1991H24.5116V13.6408H12.1574V19.1991Z" fill="#184372"/>
<path d="M49.1763 13.6408H32.484C31.7474 13.6408 31.1504 13.0436 31.1504 12.3072C31.1504 11.5708 31.7474 10.9736 32.484 10.9736H49.1763C49.9127 10.9736 50.5098 11.5708 50.5098 12.3072C50.5098 13.0437 49.9127 13.6408 49.1763 13.6408Z" fill="#184372"/>
<path d="M49.1763 21.8664H32.484C31.7474 21.8664 31.1504 21.2692 31.1504 20.5328C31.1504 19.7963 31.7474 19.1992 32.484 19.1992H49.1763C49.9127 19.1992 50.5098 19.7963 50.5098 20.5328C50.5098 21.2692 49.9127 21.8664 49.1763 21.8664Z" fill="#184372"/>
<path d="M49.1773 30.0929H10.8238C10.0874 30.0929 9.49023 29.4957 9.49023 28.7594C9.49023 28.0228 10.0874 27.4258 10.8238 27.4258H49.1773C49.9137 27.4258 50.5109 28.0228 50.5109 28.7594C50.5109 29.4959 49.9137 30.0929 49.1773 30.0929Z" fill="#184372"/>
<path d="M53.816 38.3187H6.18354C4.34521 38.3187 2.84961 36.8231 2.84961 34.9848V4.08064C2.84961 3.34424 3.44678 2.74707 4.18318 2.74707C4.91958 2.74707 5.51675 3.34424 5.51675 4.08064V34.9848C5.51675 35.3525 5.81587 35.6516 6.18354 35.6516H53.816C54.1837 35.6516 54.4828 35.3525 54.4828 34.9848V4.08064C54.4828 3.34424 55.08 2.74707 55.8164 2.74707C56.5528 2.74707 57.1499 3.34424 57.1499 4.08064V34.9848C57.1499 36.8231 55.6543 38.3187 53.816 38.3187Z" fill="#184372"/>
<path d="M58.6664 5.41421H1.33357C0.597173 5.41421 0 4.81704 0 4.08064C0 3.34424 0.597173 2.74707 1.33357 2.74707H58.6664C59.4028 2.74707 60 3.34424 60 4.08064C60 4.81704 59.4028 5.41421 58.6664 5.41421Z" fill="#184372"/>
</svg>
